<svg width="11" height="11" viewBox="0 0 11 11" fill="none" xmlns="http://www.w3.org/2000/svg">
<path fill-rule="evenodd" clip-rule="evenodd" d="M5.95 1.71231C5.95 1.25311 5.56944 0.880859 5.1 0.880859C4.63056 0.880859 4.25 1.25311 4.25 1.71231V5.03813H0.85C0.380558 5.03813 0 5.41038 0 5.86958C0 6.32878 0.380558 6.70104 0.85 6.70104H4.25V10.0269C4.25 10.4861 4.63056 10.8583 5.1 10.8583C5.56944 10.8583 5.95 10.4861 5.95 10.0269V6.70104H9.35C9.81944 6.70104 10.2 6.32878 10.2 5.86958C10.2 5.41038 9.81944 5.03813 9.35 5.03813H5.95V1.71231Z" fill="#282F36" fill-opacity="0.3"/>
</svg>
